<?xml version="1.0" encoding="UTF-8"?>
<svg version="1.1" xmlns="http://www.w3.org/2000/svg" width="2382" height="759">
<path d="M0 0 C2.65069044 2.45144391 5.33464958 4.85768202 8.03515625 7.25390625 C15.15739361 13.65591736 21.92521724 20.3701606 28.1484375 27.65234375 C30.10621364 29.91832855 32.13244573 32.11284119 34.16015625 34.31640625 C57.91015625 60.65584407 57.91015625 60.65584407 57.91015625 66.69140625 C57.24443604 66.50964844 56.57871582 66.32789063 55.89282227 66.140625 C53.94445798 65.60892758 51.99596107 65.07771603 50.04736328 64.546875 C48.07653563 64.00946021 46.10609768 63.47061213 44.13623047 62.9296875 C-14.3578771 46.92768087 -68.71155843 53.73381636 -121.56640625 83.74609375 C-132.08046657 89.88443492 -142.20416245 96.59137286 -152.08984375 103.69140625 C-152.84120605 104.23023438 -153.59256836 104.7690625 -154.36669922 105.32421875 C-164.98291155 112.97051022 -175.29042136 120.92348162 -185.36621094 129.26757812 C-187.8021444 131.27981098 -190.2602685 133.26448375 -192.71484375 135.25390625 C-198.65725716 140.12153338 -204.47343323 145.13269588 -210.29150391 150.14746094 C-212.05532099 151.66176711 -213.82691265 153.16638008 -215.6015625 154.66796875 C-222.30845924 160.35378195 -228.84714799 166.17759718 -235.26391602 172.18945312 C-238.14403507 174.88770847 -241.0338748 177.55568672 -244.02734375 180.12890625 C-248.63049568 184.09850609 -253.03154505 188.28517016 -257.46508789 192.44165039 C-260.9321555 195.68855942 -264.41704195 198.90740464 -267.96484375 202.06640625 C-274.74053992 208.12295722 -281.30671904 214.40596435 -287.91601562 220.64257812 C-293.08883333 225.5179472 -298.28083442 230.37243325 -303.49267578 235.20605469 C-304.88369391 236.49968879 -306.26677139 237.80185095 -307.6484375 239.10546875 C-347.73418604 276.28449354 -400.66071974 300.4003403 -455.90234375 298.78027344 C-490.96175888 297.3559847 -524.23216311 287.17893592 -555.08984375 270.69140625 C-555.74404297 270.3449707 -556.39824219 269.99853516 -557.07226562 269.64160156 C-570.4064621 262.53219827 -582.75437877 254.16273551 -594.71484375 244.94140625 C-595.27059082 244.51811035 -595.82633789 244.09481445 -596.39892578 243.65869141 C-600.50298827 240.42613352 -603.8105858 236.74891789 -607.08984375 232.69140625 C-604.9264119 230.50062765 -602.75922411 228.31378219 -600.58984375 226.12890625 C-599.98914063 225.51982422 -599.3884375 224.91074219 -598.76953125 224.28320312 C-595.01983652 220.51356321 -591.15419163 216.95345805 -587.12988281 213.47973633 C-583.56692669 210.35639339 -580.15003548 207.07879766 -576.71484375 203.81640625 C-571.35970757 198.75302108 -565.97858977 193.7323089 -560.4765625 188.828125 C-557.65932575 186.30598343 -554.8734648 183.75047806 -552.08984375 181.19140625 C-546.78877387 176.32176981 -541.4470411 171.49914746 -536.08984375 166.69140625 C-535.24421875 165.92828125 -534.39859375 165.16515625 -533.52734375 164.37890625 C-529.75810719 160.97740008 -525.98346763 157.58565757 -522.15234375 154.25390625 C-518.92424863 151.443181 -515.75245932 148.57560725 -512.58984375 145.69140625 C-507.10526953 140.69451647 -501.55715544 135.78827559 -495.90625 130.98046875 C-489.06563941 125.15476295 -482.34597816 119.23359689 -475.74609375 113.13671875 C-471.21473698 108.96520502 -466.56153866 104.94461131 -461.875 100.94921875 C-460.67562966 99.9259589 -459.47641558 98.90251588 -458.27734375 97.87890625 C-457.67124268 97.36166992 -457.0651416 96.84443359 -456.44067383 96.31152344 C-452.69932834 93.10651245 -449.02877445 89.83939122 -445.40234375 86.50390625 C-441.90724486 83.29495581 -438.34700535 80.23074788 -434.65234375 77.25390625 C-430.11667932 73.5956961 -425.83283205 69.7439766 -421.57055664 65.77758789 C-417.48323369 61.99650067 -413.20941131 58.49450659 -408.87109375 55.00390625 C-405.84965187 52.49169615 -402.96542602 49.86739798 -400.08984375 47.19140625 C-395.50224262 42.92222473 -390.75541647 38.93382108 -385.87109375 35.00390625 C-382.84965039 32.49169492 -379.96544297 29.86738168 -377.08984375 27.19140625 C-372.47982736 22.90182865 -367.71201139 18.88729728 -362.8046875 14.9375 C-359.9831088 12.60310035 -357.28393663 10.17150027 -354.58984375 7.69140625 C-350.19389594 3.64987007 -345.66794218 -0.15986782 -341.01953125 -3.90625 C-338.35155878 -6.09398743 -335.74511212 -8.33371677 -333.14648438 -10.60229492 C-294.61259908 -44.15762813 -248.02465758 -68.39056242 -197.08984375 -75.30859375 C-196.11660156 -75.44136719 -195.14335937 -75.57414062 -194.140625 -75.7109375 C-121.18909477 -83.48533415 -52.17582417 -48.46471488 0 0 Z " fill="#44AEDE" transform="translate(656.08984375,162.30859375)"/>
<path d="M0 0 C0.64453125 0.22268555 1.2890625 0.44537109 1.953125 0.67480469 C34.09634745 11.89013181 62.04296039 30.25221006 88 52 C86.38275849 56.08207345 83.45615199 58.80398063 80.375 61.8125 C79.87871094 62.30814453 79.38242187 62.80378906 78.87109375 63.31445312 C75.39713574 66.74863299 71.76970951 69.96871063 68.07958984 73.16772461 C64.50982064 76.31296033 61.07444311 79.5990741 57.625 82.875 C52.27254537 87.93584971 46.89482727 92.95486429 41.39453125 97.85546875 C38.53104496 100.41999399 35.70308365 103.02158335 32.875 105.625 C29.00649408 109.1827143 25.09665389 112.68289996 21.125 116.125 C18.38176506 118.54550142 15.69118757 121.02204178 13 123.5 C9.04410817 127.14167889 5.05438376 130.734995 0.9921875 134.2578125 C-1.36020635 136.31500399 -3.68034966 138.40596915 -6 140.5 C-9.61676345 143.76390848 -13.26389608 146.98790949 -16.9375 150.1875 C-19.30964429 152.27211164 -21.65556065 154.38428644 -24 156.5 C-29.33562637 161.31014801 -34.71586881 166.05980237 -40.1875 170.71484375 C-45.94264653 175.61574205 -51.64910476 180.54178271 -57.1875 185.6875 C-60.83413376 189.07524373 -64.55617401 192.31897796 -68.4375 195.4375 C-72.62237307 198.80346265 -76.58314398 202.33176017 -80.5 206 C-85.26091334 210.45872195 -90.16467563 214.63797624 -95.25390625 218.72265625 C-98.26319052 221.21826469 -101.13938654 223.83765143 -104 226.5 C-108.58757439 230.76920779 -113.33443004 234.75758739 -118.21875 238.6875 C-121.24019336 241.19971133 -124.12440078 243.82402457 -127 246.5 C-131.61001639 250.7895776 -136.37783236 254.80410897 -141.28515625 258.75390625 C-144.10673495 261.0883059 -146.80590712 263.51990598 -149.5 266 C-153.94727112 270.09351091 -158.54717463 273.92442499 -163.25 277.71875 C-166.08099578 280.06718968 -168.79383598 282.50909902 -171.5 285 C-175.87022058 289.01271311 -180.34386639 292.83137862 -184.96875 296.546875 C-187.14062901 298.30452967 -189.27989356 300.07989959 -191.40625 301.890625 C-208.11718798 315.99206704 -226.56889108 327.99512123 -246 338 C-246.70237793 338.37141113 -247.40475586 338.74282227 -248.12841797 339.12548828 C-268.69911687 349.9273254 -291.9915179 357.69966372 -315 361 C-316.13526123 361.16918945 -316.13526123 361.16918945 -317.29345703 361.34179688 C-380.45032188 370.38906126 -441.19647258 347.31433159 -491.25 309.9375 C-500.93321438 302.61694828 -510.19756339 294.95120548 -519.08984375 286.69140625 C-521.74053419 284.23996234 -524.42449333 281.83372423 -527.125 279.4375 C-534.24723736 273.03548889 -541.01506099 266.32124565 -547.23828125 259.0390625 C-549.19605739 256.7730777 -551.22228948 254.57856506 -553.25 252.375 C-577 226.03556218 -577 226.03556218 -577 220 C-576.33427979 220.18175781 -575.66855957 220.36351562 -574.98266602 220.55078125 C-573.03430173 221.08247867 -571.08580482 221.61369022 -569.13720703 222.14453125 C-567.16637938 222.68194604 -565.19594143 223.22079412 -563.22607422 223.76171875 C-505.08124049 239.66817589 -451.53792445 233.01229851 -398.6796875 203.53222656 C-368.79621063 186.44506359 -341.73762876 164.70579047 -315.6328125 142.39453125 C-313.91406296 140.92660401 -312.19151004 139.46321759 -310.46875 138 C-304.02253474 132.51318886 -297.67655329 126.94481123 -291.4375 121.22265625 C-289.35727275 119.32578236 -287.25443102 117.46607057 -285.125 115.625 C-280.97297062 112.01749907 -276.94746934 108.27779121 -272.9140625 104.5390625 C-269.675554 101.53933804 -266.41716752 98.56600298 -263.125 95.625 C-258.26616071 91.27015701 -253.50013785 86.81992629 -248.73657227 82.36157227 C-244.69385588 78.57833573 -240.6367581 74.81173159 -236.5625 71.0625 C-232.32061077 67.15816863 -228.10443976 63.22778331 -223.90429688 59.27856445 C-221.19349293 56.73069982 -218.47729656 54.1886358 -215.75976562 51.64794922 C-214.28909539 50.27072612 -212.82359552 48.88798453 -211.359375 47.50390625 C-178.24902797 16.81489412 -135.2634235 -6.2190897 -90 -11 C-88.48212891 -11.16435547 -88.48212891 -11.16435547 -86.93359375 -11.33203125 C-57.33921676 -14.05544018 -28.00741229 -9.74424553 0 0 Z " fill="#44AEDE" transform="translate(807,334)"/>
<path d="M0 0 C2.57830903 2.28678217 5.13828559 4.58989552 7.67578125 6.921875 C9.28497065 8.36067964 10.94777104 9.74088296 12.6484375 11.0703125 C15.4750866 13.38985512 17.15596108 15.85830407 19 19 C19 19.66 19 20.32 19 21 C18.00141968 20.72736328 18.00141968 20.72736328 16.98266602 20.44921875 C15.03430173 19.91752133 13.08580482 19.38630978 11.13720703 18.85546875 C9.16637938 18.31805396 7.19594143 17.77920588 5.22607422 17.23828125 C-53.26803335 1.23627462 -107.62171468 8.04241011 -160.4765625 38.0546875 C-170.99062282 44.19302867 -181.1143187 50.89996661 -191 58 C-191.7513623 58.53882813 -192.50272461 59.07765625 -193.27685547 59.6328125 C-203.8930678 67.27910397 -214.20057761 75.23207537 -224.27636719 83.57617188 C-226.71230065 85.58840473 -229.17042475 87.5730775 -231.625 89.5625 C-237.56741341 94.43012713 -243.38358948 99.44128963 -249.20166016 104.45605469 C-250.96547724 105.97036086 -252.7370689 107.47497383 -254.51171875 108.9765625 C-261.21861549 114.6623757 -267.75730424 120.48619093 -274.17407227 126.49804688 C-277.05419132 129.19630222 -279.94403105 131.86428047 -282.9375 134.4375 C-287.54065193 138.40709984 -291.9417013 142.59376391 -296.37524414 146.75024414 C-299.84231175 149.99715317 -303.3271982 153.21599839 -306.875 156.375 C-313.65069617 162.43155097 -320.21687529 168.7145581 -326.82617188 174.95117188 C-331.99898958 179.82654095 -337.19099067 184.681027 -342.40283203 189.51464844 C-343.79385016 190.80828254 -345.17692764 192.1104447 -346.55859375 193.4140625 C-386.64434229 230.59308729 -439.57087599 254.70893405 -494.8125 253.08886719 C-529.87191513 251.66457845 -563.14231936 241.48752967 -594 225 C-594.65419922 224.65356445 -595.30839844 224.30712891 -595.98242188 223.95019531 C-609.34367593 216.82636571 -621.71257913 208.44041331 -633.6875 199.1875 C-634.53368896 198.53998779 -634.53368896 198.53998779 -635.39697266 197.87939453 C-639.16087426 194.90992998 -642.05427895 191.74363436 -645 188 C-642.39534517 189.27579321 -639.87240745 190.62769358 -637.375 192.1015625 C-599.51514667 214.07325094 -556.70559669 221.1380961 -514.05297852 210.05004883 C-481.90711956 201.19667661 -454.6558033 182.86479775 -429.62060547 161.38671875 C-427.48081667 159.55574551 -425.32862482 157.73970627 -423.17602539 155.92382812 C-416.93775297 150.66061024 -410.73390565 145.35783111 -404.54296875 140.0390625 C-402.17621475 138.00630776 -399.80352816 135.98082084 -397.42578125 133.9609375 C-390.71396575 128.25106403 -384.1332617 122.43241256 -377.6640625 116.44921875 C-375.46909223 114.43126221 -373.2533379 112.45196555 -371 110.5 C-367.60948554 107.56155414 -364.30052668 104.53862874 -361 101.5 C-353.87916622 94.95230919 -346.59349486 88.63227914 -339.19726562 82.3984375 C-336.29772078 79.95287853 -333.40949736 77.49593555 -330.54296875 75.01171875 C-323.16246631 68.61895312 -315.64496733 62.46603242 -307.921875 56.4921875 C-305.85736141 54.88925215 -303.80317524 53.27367942 -301.75 51.65625 C-273.7823605 29.67028828 -244.21392906 9.23525993 -211.98681641 -6.04931641 C-209.83804008 -7.07749717 -207.70638363 -8.13704643 -205.57421875 -9.19921875 C-183.53866231 -20.06422946 -160.35714443 -27.39313642 -136.3125 -32.3125 C-135.53567871 -32.47202148 -134.75885742 -32.63154297 -133.95849609 -32.79589844 C-86.97750059 -41.90066463 -36.51737134 -31.42052969 0 0 Z " fill="#3D91B6" transform="translate(695,208)"/>
<path d="M0 0 C0.64453125 0.22268555 1.2890625 0.44537109 1.953125 0.67480469 C34.09634745 11.89013181 62.04296039 30.25221006 88 52 C87.67 52.66 87.34 53.32 87 54 C86.01902344 53.35933594 85.03804687 52.71867187 84.02734375 52.05859375 C49.25796092 29.6441229 7.44146429 20.07367367 -33.54052734 28.45654297 C-58.86082135 34.05143819 -82.89827584 44.89807259 -104 60 C-104.96035156 60.68578125 -105.92070313 61.3715625 -106.91015625 62.078125 C-113.7651883 67.09972951 -120.20108534 72.51419955 -126.61328125 78.08203125 C-129.61002257 80.6793199 -132.66550323 83.19466975 -135.75 85.6875 C-140.12939404 89.24095569 -144.31395765 92.962648 -148.48046875 96.76171875 C-151.03204917 99.02847158 -153.65171532 101.17540087 -156.3125 103.3125 C-161.12213393 107.19955252 -165.64210063 111.32095718 -170.15014648 115.546875 C-174.46479389 119.56779473 -178.97565145 123.28697403 -183.57421875 126.98046875 C-186.33872603 129.28199896 -188.83682074 131.74609916 -191.3359375 134.328125 C-193.72486855 136.72827169 -196.2792443 138.9155797 -198.84375 141.125 C-201.19962958 143.17359094 -203.5050746 145.27203002 -205.8125 147.375 C-210.18635971 151.32687937 -214.70972122 155.05275365 -219.29296875 158.7578125 C-221.87303591 160.89483782 -224.34714485 163.10735745 -226.8125 165.375 C-231.86207987 169.97572832 -237.19363897 174.14697457 -242.5859375 178.33203125 C-245.45776555 180.5638293 -248.26822207 182.85893506 -251.0625 185.1875 C-263.94736113 195.7694539 -277.2449922 205.83027851 -291.26123047 214.86425781 C-292.99551649 215.99707143 -294.70484695 217.16003037 -296.41015625 218.3359375 C-335.28453256 245.05151197 -379.26264943 266.05161832 -426 274 C-427.94132812 274.33644531 -427.94132812 274.33644531 -429.921875 274.6796875 C-463.46913866 279.51951012 -499.04705712 276.5713684 -529 260 C-530.9572664 259.10183796 -532.91559567 258.20598837 -534.875 257.3125 C-548.7035139 250.38901173 -562.46910866 239.11217441 -572 227 C-573.36125 225.6696875 -573.36125 225.6696875 -574.75 224.3125 C-577 222 -577 222 -577 220 C-576.33427979 220.18175781 -575.66855957 220.36351562 -574.98266602 220.55078125 C-573.03430173 221.08247867 -571.08580482 221.61369022 -569.13720703 222.14453125 C-567.16637938 222.68194604 -565.19594143 223.22079412 -563.22607422 223.76171875 C-505.08124049 239.66817589 -451.53792445 233.01229851 -398.6796875 203.53222656 C-368.79621063 186.44506359 -341.73762876 164.70579047 -315.6328125 142.39453125 C-313.91406296 140.92660401 -312.19151004 139.46321759 -310.46875 138 C-304.02253474 132.51318886 -297.67655329 126.94481123 -291.4375 121.22265625 C-289.35727275 119.32578236 -287.25443102 117.46607057 -285.125 115.625 C-280.97297062 112.01749907 -276.94746934 108.27779121 -272.9140625 104.5390625 C-269.675554 101.53933804 -266.41716752 98.56600298 -263.125 95.625 C-258.26616071 91.27015701 -253.50013785 86.81992629 -248.73657227 82.36157227 C-244.69385588 78.57833573 -240.6367581 74.81173159 -236.5625 71.0625 C-232.32061077 67.15816863 -228.10443976 63.22778331 -223.90429688 59.27856445 C-221.19349293 56.73069982 -218.47729656 54.1886358 -215.75976562 51.64794922 C-214.28909539 50.27072612 -212.82359552 48.88798453 -211.359375 47.50390625 C-178.24902797 16.81489412 -135.2634235 -6.2190897 -90 -11 C-88.48212891 -11.16435547 -88.48212891 -11.16435547 -86.93359375 -11.33203125 C-57.33921676 -14.05544018 -28.00741229 -9.74424553 0 0 Z " fill="#3D91B6" transform="translate(807,334)"/>
<path d="M0 0 C1 1 1 1 1.11352539 4.41821289 C1.11336628 5.93636988 1.10767226 7.45453229 1.09765625 8.97265625 C1.09553383 10.16912025 1.09553383 10.16912025 1.09336853 11.38975525 C1.08775316 13.94737435 1.07519812 16.50490718 1.0625 19.0625 C1.05748698 20.79231645 1.05292373 22.52213426 1.04882812 24.25195312 C1.03777875 28.50133553 1.02050386 32.75065312 1 37 C-0.17651123 36.76933838 -1.35302246 36.53867676 -2.56518555 36.30102539 C-16.5417323 33.60090926 -35.17990038 30.04026782 -48 38 C-54.75311413 43.53419104 -56.61457626 50.68745758 -58 59 C-58.33 68.9 -58.66 78.8 -59 89 C-37.88 89 -16.76 89 5 89 C5 72.5 5 56 5 39 C19.85 39 34.7 39 50 39 C50 55.5 50 72 50 89 C67.16 89 84.32 89 102 89 C102 101.21 102 113.42 102 126 C84.84 126 67.68 126 50 126 C50.09083129 142.6895826 50.09083129 142.6895826 50.20898438 159.37890625 C50.2632549 166.18861796 50.31436727 172.99824829 50.34643555 179.80810547 C50.37249891 185.30011551 50.41292322 190.7918514 50.46318626 196.28369141 C50.47983439 198.3759418 50.49136143 200.46823959 50.49761391 202.56054688 C50.50727719 205.49768621 50.53536363 208.43412743 50.56762695 211.37109375 C50.56619186 212.2306517 50.56475677 213.09020966 50.5632782 213.97581482 C50.65055145 219.61629539 51.66454591 223.84577091 54 229 C55.79114624 230.89837805 55.79114624 230.89837805 57.9375 231.9375 C58.60652344 232.31777344 59.27554688 232.69804687 59.96484375 233.08984375 C71.13109241 238.08357876 86.64337317 235.37352836 98.12890625 232.65625 C101 232 101 232 104 232 C104 244.21 104 256.42 104 269 C80.8690207 276.71032643 52.20298672 277.54806764 29.64453125 267.37109375 C18.38767254 261.53481989 11.18793211 252.98954711 6.91015625 241.11328125 C4.99532275 234.56340014 4.86137756 228.35677941 4.88647461 221.58837891 C4.88632858 220.55362427 4.88618256 219.51886963 4.8860321 218.45275879 C4.8867269 215.04400512 4.89449903 211.63530659 4.90234375 208.2265625 C4.90420947 205.85859202 4.90563265 203.49062115 4.90663147 201.12265015 C4.91044453 194.89856902 4.92026449 188.67451134 4.93133545 182.45043945 C4.94337689 174.97806787 4.94795758 167.50568845 4.95378876 160.03330994 C4.96347688 148.688857 4.98264194 137.34445547 5 126 C-16.12 126 -37.24 126 -59 126 C-59 173.19 -59 220.38 -59 269 C-73.85 269 -88.7 269 -104 269 C-104 221.81 -104 174.62 -104 126 C-113.9 126 -123.8 126 -134 126 C-134 113.79 -134 101.58 -134 89 C-124.1 89 -114.2 89 -104 89 C-104.07836433 79.7574423 -104.07836433 79.7574423 -104.18017578 70.51513672 C-104.26745863 49.84036384 -100.36318791 29.11560571 -85.5625 13.6875 C-76.52067617 4.78480345 -64.37229908 -0.59317011 -52 -3 C-51.15953125 -3.18046875 -50.3190625 -3.3609375 -49.453125 -3.546875 C-32.94511002 -5.71308511 -16.01757807 -4.37802079 0 0 Z " fill="#1A7EC1" transform="translate(2175,219)"/>
<path d="M0 0 C0.86109375 0.350625 1.7221875 0.70125 2.609375 1.0625 C11.7385764 5.14512423 19.06225164 11.92524045 26 19 C25.98839844 18.29875 25.97679687 17.5975 25.96484375 16.875 C25.95582031 15.92625 25.94679688 14.9775 25.9375 14 C25.92589844 13.071875 25.91429687 12.14375 25.90234375 11.1875 C26.01708994 7.44218433 26.53523279 3.71813765 27 0 C40.2 0 53.4 0 67 0 C67.04524332 24.74009004 67.0820452 49.48014631 67.10362434 74.2202673 C67.11391268 85.70895309 67.12792605 97.19761125 67.15087891 108.6862793 C67.17088784 118.70624246 67.18373416 128.7261856 67.18817699 138.7461682 C67.19077172 144.04579465 67.19681893 149.34536384 67.21146011 154.64497185 C67.2251629 159.64603305 67.22919732 164.64701408 67.22621536 169.64809227 C67.2267599 171.47120857 67.23066097 173.29432791 67.23841095 175.11742783 C67.34429159 201.33899635 64.61794288 226.39806388 45.328125 245.921875 C23.85672911 266.48067319 -7.55244194 271.45148204 -36.0625 271.3125 C-37.20362244 271.31026428 -37.20362244 271.31026428 -38.36779785 271.3079834 C-57.52307917 271.2408141 -75.76492023 269.07835992 -94 263 C-94 250.79 -94 238.58 -94 226 C-86.66908532 227.46618294 -79.35611367 228.97709633 -72.05664062 230.58789062 C-48.14795676 235.72383012 -16.91769197 236.69563646 4.52734375 223.4375 C13.18467704 217.21459154 18.4837322 208.59632576 20.56811523 198.15380859 C21.00482272 194.96478242 21.11358328 191.9438227 21.09765625 188.7265625 C21.09443359 187.57285156 21.09121094 186.41914063 21.08789062 185.23046875 C21.07951172 184.04066406 21.07113281 182.85085938 21.0625 181.625 C21.05798828 180.41199219 21.05347656 179.19898438 21.04882812 177.94921875 C21.03708354 174.96609493 21.0206584 171.98307321 21 169 C20.20078125 169.51949219 19.4015625 170.03898438 18.578125 170.57421875 C-0.85382435 182.91305044 -21.8240525 188.38305047 -44.74658203 183.91918945 C-64.08075469 179.54360759 -79.2636073 168.55558031 -90.0625 152 C-106.43641191 124.55148489 -107.71466692 88.99819848 -100.3125 58.5 C-94.13657545 36.9296753 -82.52033504 17.21648943 -62.74609375 5.4921875 C-58.24997002 3.0490591 -53.77752982 0.84218311 -49 -1 C-47.75476562 -1.48146484 -47.75476562 -1.48146484 -46.484375 -1.97265625 C-32.22677046 -6.45421323 -13.69494644 -6.08664286 0 0 Z M-45 45 C-57.68786809 61.419594 -59.6536487 84.96577435 -57.29345703 104.94873047 C-55.38681095 118.27621831 -51.44247511 131.91844788 -41.28515625 141.3125 C-31.66804376 148.41436768 -21.65548451 149.85137798 -10 149 C-1.40430097 147.28282268 6.74412965 143.93067012 14 139 C14.65439056 138.64340302 15.30878113 138.28680603 15.98300171 137.91940308 C18.63692097 136.15820554 20.21176783 134.65833556 22 132 C23.20017343 126.01708029 23.05439587 120.10805844 22.95703125 114.02734375 C22.95479942 112.25810374 22.95538816 110.48885814 22.95866394 108.71961975 C22.95692452 105.01972262 22.92790932 101.32138273 22.87817383 97.62182617 C22.81575968 92.88802363 22.81090643 88.15634191 22.8251543 83.42221737 C22.83157566 79.77170209 22.81278468 76.12166327 22.78589439 72.47125435 C22.77504315 70.7262306 22.77073206 68.98115312 22.77317238 67.23609734 C22.77173957 64.79433789 22.73764246 62.35515344 22.69458008 59.91381836 C22.6999881 59.19832825 22.70539612 58.48283813 22.71096802 57.7456665 C22.55622309 52.1108968 20.81191406 49.85160589 17 46 C7.16574047 37.65933961 -4.25004669 32.79591456 -17.0625 31.75 C-28.24367374 32.70158925 -37.30861291 36.71696775 -45 45 Z " fill="#2487C7" transform="translate(1460,308)"/>
<path d="M0 0 C0.69061523 -0.00794586 1.38123047 -0.01589172 2.09277344 -0.02407837 C25.19840283 -0.22817352 46.79590418 5.3798324 64.125 21.4375 C76.21165093 34.04215026 79.82806134 49.72577559 79.80737305 66.76269531 C79.82266052 68.68190041 79.82266052 68.68190041 79.83825684 70.63987732 C79.8655575 74.10808782 79.87507412 77.57613445 79.88111091 81.04443836 C79.89056569 84.68396667 79.91677409 88.32337589 79.94111633 91.96282959 C79.98459137 98.83664528 80.01325443 105.71043762 80.03643972 112.58434844 C80.06359397 120.41767877 80.10749864 128.25088816 80.15272844 136.08413172 C80.2453023 152.1810389 80.31489667 168.27793385 80.375 184.375 C66.845 184.375 53.315 184.375 39.375 184.375 C38.715 178.765 38.055 173.155 37.375 167.375 C36.17875 168.53 34.9825 169.685 33.75 170.875 C17.51492073 185.29481844 -1.79797413 190.5274296 -23.11376953 189.5703125 C-38.70992856 188.3573116 -51.87699306 181.69255945 -62.625 170.375 C-74.77280681 156.16703881 -76.87099098 139.36529997 -75.625 121.375 C-73.84105998 107.56632335 -66.92463951 94.27582386 -56.19140625 85.3515625 C-35.74525943 69.74868734 -9.70127522 66.93842054 15.25390625 70.01171875 C21.34597713 70.87452336 27.41276684 71.83633243 33.375 73.375 C33.95215294 64.18864911 33.32884435 56.05865125 27.9375 48.30859375 C20.38852925 39.90673448 9.28888876 37.0210653 -1.625 36.375 C-19.03502018 36.05510987 -35.59167017 39.63381781 -51.92797852 45.4440918 C-54.95974533 46.52218433 -57.37963376 47.375 -60.625 47.375 C-60.625 35.825 -60.625 24.275 -60.625 12.375 C-51.97476204 8.53044979 -43.72951154 5.69446847 -34.625 3.375 C-33.96483887 3.20548828 -33.30467773 3.03597656 -32.62451172 2.86132812 C-21.87216727 0.25371554 -11.00741905 0.06623349 0 0 Z M-27.0625 116.0625 C-30.31962107 122.96759666 -31.47093799 129.96473915 -29.3828125 137.37890625 C-26.68907447 144.47426775 -21.70662587 148.80715526 -15.0625 152.1875 C-3.88460845 155.88512952 7.41136807 152.80781757 17.83984375 148.3125 C24.09493003 145.14648094 30.11901173 140.97560399 34.375 135.375 C35.55478319 130.61275223 35.33647587 126.18104702 35 121.3125 C34.93232422 119.44174805 34.93232422 119.44174805 34.86328125 117.53320312 C34.74612401 114.47539917 34.58241203 111.42778594 34.375 108.375 C32.28802587 107.88818353 30.20072296 107.40277634 28.11328125 106.91796875 C26.95094971 106.64750732 25.78861816 106.3770459 24.59106445 106.09838867 C7.25565721 102.19913932 -14.31110972 102.00327482 -27.0625 116.0625 Z " fill="#2182C4" transform="translate(1256.625,303.625)"/>
<path d="M0 0 C0.67398834 0.00270905 1.34797668 0.00541809 2.04238892 0.00820923 C27.29950665 0.1616719 48.4923192 7.49352505 66.75 25.4375 C67.37648438 26.05109375 68.00296875 26.6646875 68.6484375 27.296875 C88.49663629 48.31261489 91.49462115 77.72464595 90.87744141 105.19482422 C89.9677527 128.34134808 80.6232913 148.79060064 64.75 165.4375 C63.95722656 166.35982422 63.95722656 166.35982422 63.1484375 167.30078125 C50.24949388 181.68806451 28.46629784 188.27891437 9.77270508 189.65698242 C-14.69817814 190.61967201 -38.69446306 187.3346882 -58.25 171.4375 C-59.51070312 170.42042969 -59.51070312 170.42042969 -60.796875 169.3828125 C-77.97161923 154.75825756 -87.62351366 132.94828734 -90.07788086 110.72460938 C-92.35775304 80.42979721 -88.30870291 51.84624748 -68.4296875 27.87890625 C-50.82663444 8.16222496 -25.99777765 -0.20294275 0 0 Z M-30.96484375 50.28125 C-43.09881743 65.34837254 -45.89175522 85.9060901 -44.03173828 104.63525391 C-42.00650734 120.64845957 -36.97908705 134.3204634 -24.32421875 144.90234375 C-14.67666179 152.04262602 -4.01220046 153.3899049 7.75 152.4375 C19.8646987 149.95821282 28.50182398 143.29875236 35.75 133.4375 C46.41950636 115.02845534 47.11490258 91.59003174 41.97265625 71.3828125 C38.34750094 59.40268552 32.60698026 48.81616426 21.7109375 42.19921875 C4.10165178 32.85065973 -17.32638348 35.61757518 -30.96484375 50.28125 Z " fill="#2082C4" transform="translate(1953.25,303.5625)"/>
<path d="M0 0 C17.60834176 13.53477016 25.69228169 34.67201275 28.93652344 56.03125 C30.57954406 69.04388103 30.29062524 81.70087582 29.28417969 94.78466797 C-9.32582031 94.78466797 -47.93582031 94.78466797 -87.71582031 94.78466797 C-84.79653185 108.40801412 -82.09774002 120.21948597 -70.71582031 128.78466797 C-60.66895031 135.03194266 -49.48628908 138.14157944 -37.71582031 138.78466797 C-36.83410156 138.83751953 -35.95238281 138.89037109 -35.04394531 138.94482422 C-16.86403209 139.48645376 0.83445187 135.27549925 18.18139648 130.2878418 C20.28417969 129.78466797 20.28417969 129.78466797 23.28417969 129.78466797 C23.28417969 141.66466797 23.28417969 153.54466797 23.28417969 165.78466797 C5.97122744 171.55565205 5.97122744 171.55565205 -3.02832031 173.03466797 C-4.37506836 173.27443359 -4.37506836 173.27443359 -5.74902344 173.51904297 C-38.21489452 179.14489789 -74.81382578 178.26904711 -102.65332031 158.72216797 C-120.26957202 145.02063886 -129.80806352 126.01633201 -133.30126953 104.26196289 C-134.09347614 97.61685177 -134.10995499 90.96747563 -134.09082031 84.28466797 C-134.08994415 83.53621613 -134.08906799 82.78776428 -134.08816528 82.01663208 C-133.97406083 52.41067207 -125.79545426 27.8989292 -104.56347656 6.62841797 C-77.6841914 -18.64685922 -30.04186074 -21.27893892 0 0 Z M-75.71582031 32.78466797 C-81.7672494 40.68252419 -85.71582031 49.83934251 -85.71582031 59.78466797 C-62.94582031 59.78466797 -40.17582031 59.78466797 -16.71582031 59.78466797 C-16.71582031 49.05298441 -19.19209475 39.01118897 -26.46582031 30.81201172 C-33.28673299 24.33489504 -40.34414172 21.59976779 -49.71582031 21.28466797 C-60.09185718 21.63315891 -68.36682586 25.42156796 -75.71582031 32.78466797 Z " fill="#2082C4" transform="translate(1679.7158203125,317.21533203125)"/>
<path d="M0 0 C0.69804749 0.00432037 1.39609497 0.00864075 2.11529541 0.01309204 C19.41989428 0.1382587 39.51753762 1.47751881 55.3125 9.375 C55.3125 21.585 55.3125 33.795 55.3125 46.375 C50.0325 45.055 44.7525 43.735 39.3125 42.375 C35.66593462 41.60666014 32.03677739 40.86391562 28.375 40.1875 C27.52099609 40.02314453 26.66699219 39.85878906 25.78710938 39.68945312 C11.84604 37.06687572 -6.28367254 33.80982612 -18.953125 41.8046875 C-22.5682096 44.75847613 -24.41787697 46.80695116 -24.92578125 51.64453125 C-25.04449179 55.71192927 -24.91000625 58.79648375 -23.4375 62.625 C-14.29208897 71.77041103 -0.15071639 73.90242476 11.95654297 76.82861328 C28.91080749 80.96557887 46.19795437 86.48379408 55.9609375 101.9375 C63.76920162 116.01945611 64.57008081 133.019184 60.34375 148.45703125 C55.26465525 162.82856073 45.0915577 173.870146 31.57421875 180.7734375 C1.11250107 194.37609898 -36.80349708 192.58355458 -67.6875 181.375 C-68.3475 181.045 -69.0075 180.715 -69.6875 180.375 C-69.6875 168.165 -69.6875 155.955 -69.6875 143.375 C-66.3875 144.365 -63.0875 145.355 -59.6875 146.375 C-36.89927316 152.69631465 -11.10655975 156.42295917 10.875 145.625 C14.72618627 142.07005882 17.05899993 138.3713708 17.5078125 133.06640625 C17.25131907 128.59285907 16.27132497 125.00963948 13.04541016 121.69433594 C4.55064279 115.22691936 -7.06434972 113.10120079 -17.1875 110.375 C-36.05895504 105.29284926 -54.08875213 99.82958777 -64.9296875 82.375 C-71.82152806 69.89925942 -70.98979799 54.15515423 -67.71875 40.72265625 C-63.3629949 26.58295125 -54.49529306 15.75032708 -41.6875 8.375 C-28.43192614 1.60894213 -14.72694399 -0.17373223 0 0 Z " fill="#2082C4" transform="translate(1791.6875,303.625)"/>
<path d="M0 0 C0.71802795 -0.00067474 1.43605591 -0.00134949 2.17584229 -0.00204468 C19.65165151 0.02403716 39.84209265 1.26479633 55.8125 9.25 C55.8125 21.46 55.8125 33.67 55.8125 46.25 C50.5325 44.93 45.2525 43.61 39.8125 42.25 C36.16593462 41.48166014 32.53677739 40.73891562 28.875 40.0625 C28.02099609 39.89814453 27.16699219 39.73378906 26.28710938 39.56445312 C12.17446862 36.90959991 -4.55298658 34.06788901 -17.5625 41.5625 C-20.77682246 43.77794934 -22.84516919 45.47469461 -24.1875 49.25 C-24.82200655 54.03691018 -24.67838607 57.97369622 -22.9375 62.5 C-13.79208897 71.64541103 0.34928361 73.77742476 12.45654297 76.70361328 C29.48459356 80.85858322 46.29774182 86.45719625 56.625 101.5 C64.37580529 114.63035964 64.96796842 131.19023361 61.625 145.9375 C57.06051409 160.76682058 47.45691069 172.21525897 33.953125 179.87109375 C5.48219705 194.07114612 -32.70082631 192.61091016 -62.34326172 182.96411133 C-64.69274257 182.16722045 -66.96617509 181.36066246 -69.1875 180.25 C-69.1875 168.04 -69.1875 155.83 -69.1875 143.25 C-58.1875 146.25 -58.1875 146.25 -54.3515625 147.34765625 C-33.97037064 152.90411805 -9.46629237 155.90436914 10.06640625 146.12109375 C14.51833187 143.30494874 16.47198539 140.27692979 17.8125 135.25 C18.07901261 130.47775856 17.33224974 127.15089955 14.9375 123 C8.00556096 115.85178153 -3.46632053 113.86693791 -12.78173828 111.42666626 C-32.5519604 106.21634574 -53.24286258 100.75574435 -64.5078125 82.05859375 C-71.26285923 68.07314514 -70.27097206 51.86099866 -66.1875 37.25 C-61.0960883 23.03437524 -50.67026804 12.73407929 -37.1875 6.25 C-24.89402647 1.4106737 -13.13317365 0.01102623 0 0 Z " fill="#2082C4" transform="translate(1108.1875,303.75)"/>
<path d="M0 0 C4.85857844 2.29678253 7.63468979 5.17840611 10 10 C10.82454452 14.68644179 10.47650352 18.02866591 8.375 22.3125 C5.05193885 26.07280603 2.51064546 28.63331855 -2.62109375 29.3828125 C-8.60370388 29.62633801 -12.34350928 29.07442938 -17 25 C-17.598125 24.484375 -18.19625 23.96875 -18.8125 23.4375 C-21.50670087 20.17609895 -21.3360651 16.30040027 -21.27734375 12.28125 C-20.69073199 7.45616173 -17.8624045 4.79930173 -14.4375 1.625 C-9.56643525 -0.67768515 -5.29813119 -0.77379561 0 0 Z M-16.3125 7.3125 C-18.26271897 10.41840428 -18.92513017 12.33137823 -19 16 C-17.32522936 20.65214068 -15.24662377 23.45202574 -11 26 C-6.84481553 27.25342342 -3.86881346 27.30074312 0.25 25.875 C3.90943031 23.37993388 6.52258735 21.41383406 7.41796875 16.88671875 C7.67347003 12.7779819 7.37323642 9.86876728 4.8125 6.5625 C1.40779626 3.46043659 -0.91460525 2.2673583 -5.4375 1.6875 C-10.01774124 2.24606601 -13.07684055 4.07684055 -16.3125 7.3125 Z " fill="#0F74BC" transform="translate(2302,161)"/>
<path d="M0 0 C2 1.5 2 1.5 3 3 C-0.47286822 5.10852713 -0.47286822 5.10852713 -3.125 4.5625 C-3.74375 4.376875 -4.3625 4.19125 -5 4 C-5.99 4.495 -5.99 4.495 -7 5 C-7 6.98 -7 8.96 -7 11 C-3.94736336 11.98120464 -2.05263664 11.98120464 1 11 C1.99 12.485 1.99 12.485 3 14 C-0.68551188 16.45700792 -3.72174051 16.80737582 -8 16 C-11.44150865 13.56226471 -12.762119 12.14182881 -13.625 8 C-12.01107481 0.25315909 -6.9205012 -0.8929679 0 0 Z " fill="#0F74BC" transform="translate(2301,167)"/>
<path d="M0 0 C3.94139078 1.66751148 6.7892812 4.22710649 10 7 C9.67 7.66 9.34 8.32 9 9 C7.491987 8.07544441 5.99375083 7.1349253 4.5 6.1875 C3.6646875 5.66542969 2.829375 5.14335937 1.96875 4.60546875 C0.99421875 3.81076172 0.99421875 3.81076172 0 3 C0 2.01 0 1.02 0 0 Z " fill="#2E72A7" transform="translate(885,379)"/>
<path d="M0 0 C3.11743233 1.50098594 6.15501823 3.02431822 9 5 C9 5.99 9 6.98 9 8 C4.7257442 6.4169423 2.73468206 3.49431596 0 0 Z " fill="#2C71A6" transform="translate(50,396)"/>
</svg>
